<svg width="120" height="120" xmlns="http://www.w3.org/2000/svg">

 <g>
  <title>Layer 1</title>
  <g id="svg_5">
   <rect stroke="#000" rx="45" id="svg_3" height="119" width="119" y="0" x="0.5" fill="#6b00d6"/>
   <path stroke="#000" id="svg_2" d="m66.62235,51.40572c4.96188,0 9.92377,0 14.88565,0c0,5.57647 0,11.15294 0,16.72942c-4.96188,0 -9.92377,0 -14.88565,0c0,-5.57647 0,-11.15294 0,-16.72942zm-21.5015,0c5.51317,0 11.02644,0 16.53962,0c0,5.57647 0,11.15294 0,16.72942c-5.51317,0 -11.02644,0 -16.53962,0c0,-5.57647 0,-11.15294 0,-16.72942zm-19.84753,0c5.51317,0 11.02644,0 16.53961,0c0,5.57647 0,11.15294 0,16.72942c-5.51317,0 -11.02644,0 -16.53961,0c0,-5.57647 0,-11.15294 0,-16.72942zm-19.84753,0c5.51317,0 11.02644,0 16.53961,0c0,5.57647 0,11.15294 0,16.72942c-5.51317,0 -11.02644,0 -16.53961,0c0,-5.57647 0,-11.15294 0,-16.72942zm61.19656,34.49906c5.23757,-0.37771 10.47505,0.26687 15.71263,-0.11084c0.33606,-5.88627 0.1804,-11.77256 0.51646,-17.65883c4.90152,0 10.29475,0 15.19617,0c0,-5.57647 0,-11.15295 0,-16.72942c-4.96188,0 -9.92377,0 -14.88565,0c0,-6.19609 0,-12.39217 0,-18.58824c-5.51317,0 -11.02644,0 -16.53961,0c0,-5.57647 0,-11.15294 0,-16.72942c5.51317,0 11.02644,0 16.53961,0c0,5.57647 0,11.15294 0,16.72942c4.90142,0 10.29465,-0.27631 15.19617,-0.27631c0.33606,5.88626 0.1804,12.04886 0.51647,17.93513c5.23757,0.3777 10.54892,-0.03204 15.7865,0.34566c0,5.50858 -0.07388,11.80458 -0.07388,17.31317c-5.51317,0 -11.02644,0 -16.53961,0c0,6.19609 0,12.39215 0,18.58824c-4.96188,0 -9.92377,0 -14.88565,0c0,5.57647 0,11.15294 0,16.72942c-5.51317,0 -11.02644,0 -16.53961,0c0,-5.50858 0,-12.03941 0,-17.548l0,0.00001z" fill="#ff00ff"/>
  </g>
 </g>
</svg>